# xmcd
# 
# Track frame offsets:
#     150
#     15966
#     29874
#     42178
#     57216
#     73080
#     98117
#     115948
#     130784
#     144706
#     161264
#     173979
#     188881
#     201358
#     215563
#     230975
#     247352
#     262685
#     275290
#     289642
# 
# Disc length: 4062
# 
# Revision: 4
# Processed by: cddbd v1.5.2PL0 Copyright (c) Steve Scherf et al.
# Submitted via: fre:ac v1.0.17
# 
DISCID=300fdc14
DTITLE=Various Artist - Dance Summer 2009 [CD2)
DYEAR=2009
DGENRE=Dance
TTITLE0=Ocean Drive Feat.Dj Oriska -  Some People
TTITLE1=The Pussycat Dolls -  I Hate This Part
TTITLE2=Kid Cudi Vs Crookers - Day 'n' Nite
TTITLE3=Antoine Clamaran - Gold
TTITLE4=Alesha Dixon - The Boy Does Nothing
TTITLE5=The Veronicas - Untouched
TTITLE6=Chuckie - Let theBass Kick
TTITLE7=Mickael Mind - Backer Street
TTITLE8=Steve Angelo and Laidback Luke - Show Me Love
TTITLE9=Benjamin Braxton - Now You Know
TTITLE10=John Dahlbäck Feat.Basto - Out There
TTITLE11=Shalya - In The Party
TTITLE12=Rudenko - Everybody
TTITLE13=September - Can't Get Over
TTITLE14=Sidekick - Deep Fear
TTITLE15=Venus Kaly - Mon Amour
TTITLE16=Shanna Feat.K-Deeja - Vivre Sans Toi
TTITLE17=Tatana and Hanna Hais - Jazz Samba Breeze
TTITLE18=Guru Josh Project - Infinity 2008
TTITLE19=Dada Obernik Harris - Stereo Flo
EXTD=YEAR: 2009
EXTT0=
EXTT1=
EXTT2=
EXTT3=
EXTT4=
EXTT5=
EXTT6=
EXTT7=
EXTT8=
EXTT9=
EXTT10=
EXTT11=
EXTT12=
EXTT13=
EXTT14=
EXTT15=
EXTT16=
EXTT17=
EXTT18=
EXTT19=
PLAYORDER=
